# xmcd
#
# Track frame offsets: 
#        150
#        17798
#        32868
#        54361
#        86224
#        104293
#        143645
#        160886
#        187096
#        214165
#
# Disc length: 3071 seconds
#
# Revision: 1
# Processed by: cddbd v1.5.2PL0 Copyright (c) Steve Scherf et al.
# Submitted via: ExactAudioCopyFreeDBPlugin 1.0
#
DISCID=890bfd0a
DTITLE=Lou Reed - Recorded Live New York Studio 1972
DYEAR=2011
DGENRE=Blues
TTITLE0=White light white heat
TTITLE1=Vicious
TTITLE2=Sweet Jane
TTITLE3=I'm waiting for my man
TTITLE4=Walk it talk it
TTITLE5=Heroin
TTITLE6=Satellite of love
TTITLE7=Walk on the wild side
TTITLE8=Berlin
TTITLE9=I'm so free
EXTD=
EXTT0=
EXTT1=
EXTT2=
EXTT3=
EXTT4=
EXTT5=
EXTT6=
EXTT7=
EXTT8=
EXTT9=
PLAYORDER=
